<svg width="128" height="128" viewBox="0 0 128 128" fill="none" xmlns="http://www.w3.org/2000/svg">
  <rect width="128" height="128" rx="30" fill="#1D1D1F"/>
  <path d="M35 78c8.5 9.4 20.3 14.1 35.4 14.1 16.8 0 27.6-7.6 27.6-20.1 0-11.2-7.5-16.6-23.5-19.9l-9.6-2c-7.7-1.6-11.2-3.7-11.2-7.5 0-4.7 4.7-7.7 12.4-7.7 8.2 0 15.5 3.2 21.7 9.5l8.7-10.5C89.1 25.7 78.6 21 66.5 21 50 21 39.6 29.4 39.6 42c0 11.1 7.6 17.1 23.1 20.2l9.5 1.9c8.4 1.7 11.5 3.9 11.5 8.1 0 4.8-5 7.6-13.5 7.6-10.1 0-18.7-4-25.8-11.6L35 78Z" fill="white"/>
  <path d="M32 99h64" stroke="#0F9F8F" stroke-width="8" stroke-linecap="round"/>
</svg>
